<mxfile host="app.diagrams.net" modified="2024-06-29T02:53:51.808Z" agent="Mozilla/5.0 (Windows NT 10.0; Win64; x64) AppleWebKit/537.36 (KHTML, like Gecko) Chrome/126.0.0.0 Safari/537.36 Edg/126.0.0.0" etag="f7MKo-7nmH_g3MHhs8Xi" version="24.4.9" type="github">
  <diagram name="第 1 页" id="yG4VEhukbX8E-P6RL4Ew">
    <mxGraphModel dx="965" dy="545" grid="1" gridSize="10" guides="1" tooltips="1" connect="1" arrows="1" fold="1" page="1" pageScale="1" pageWidth="827" pageHeight="1169" math="0" shadow="0">
      <root>
        <mxCell id="0" />
        <mxCell id="1" parent="0" />
        <mxCell id="_9yM1N_c14yzDBK7w2tD-1" value="基本问题：" style="text;html=1;align=center;verticalAlign=middle;whiteSpace=wrap;rounded=0;" vertex="1" parent="1">
          <mxGeometry x="70" y="140" width="80" height="30" as="geometry" />
        </mxCell>
        <mxCell id="_9yM1N_c14yzDBK7w2tD-2" value="无法渲染4K" style="rounded=0;whiteSpace=wrap;html=1;" vertex="1" parent="1">
          <mxGeometry x="60" y="210" width="100" height="50" as="geometry" />
        </mxCell>
        <mxCell id="_9yM1N_c14yzDBK7w2tD-4" value="保序影响性能" style="rounded=0;whiteSpace=wrap;html=1;" vertex="1" parent="1">
          <mxGeometry x="60" y="320" width="100" height="50" as="geometry" />
        </mxCell>
        <mxCell id="_9yM1N_c14yzDBK7w2tD-6" value="共享内存大小" style="rounded=0;whiteSpace=wrap;html=1;" vertex="1" parent="1">
          <mxGeometry x="240" y="320" width="100" height="50" as="geometry" />
        </mxCell>
        <mxCell id="_9yM1N_c14yzDBK7w2tD-7" value="光栅化采样精度" style="rounded=0;whiteSpace=wrap;html=1;" vertex="1" parent="1">
          <mxGeometry x="240" y="210" width="100" height="50" as="geometry" />
        </mxCell>
        <mxCell id="_9yM1N_c14yzDBK7w2tD-8" value="阶段间数据依赖" style="rounded=0;whiteSpace=wrap;html=1;" vertex="1" parent="1">
          <mxGeometry x="240" y="410" width="100" height="50" as="geometry" />
        </mxCell>
      </root>
    </mxGraphModel>
  </diagram>
</mxfile>
